<mxfile host="Electron" agent="Mozilla/5.0 (Windows NT 10.0; Win64; x64) AppleWebKit/537.36 (KHTML, like Gecko) draw.io/27.0.9 Chrome/134.0.6998.205 Electron/35.4.0 Safari/537.36" version="27.0.9">
  <diagram name="Seite-1" id="Jza5Yb1TJVeLQbYpThIi">
    <mxGraphModel dx="1852" dy="596" grid="1" gridSize="10" guides="1" tooltips="1" connect="1" arrows="1" fold="1" page="1" pageScale="1" pageWidth="827" pageHeight="1169" math="0" shadow="0">
      <root>
        <mxCell id="0" />
        <mxCell id="1" parent="0" />
        <mxCell id="Pmupyu8a3VUl3kiDGNb9-8" style="edgeStyle=orthogonalEdgeStyle;shape=connector;rounded=0;orthogonalLoop=1;jettySize=auto;html=1;entryX=0;entryY=0.5;entryDx=0;entryDy=0;strokeColor=#0B4D6A;align=center;verticalAlign=middle;fontFamily=Helvetica;fontSize=11;fontColor=default;labelBackgroundColor=none;startFill=0;endArrow=none;" edge="1" parent="1" source="Pmupyu8a3VUl3kiDGNb9-1" target="Pmupyu8a3VUl3kiDGNb9-7">
          <mxGeometry relative="1" as="geometry" />
        </mxCell>
        <mxCell id="Pmupyu8a3VUl3kiDGNb9-1" value="haushold" style="rounded=1;arcSize=10;whiteSpace=wrap;html=1;align=center;labelBackgroundColor=none;fillColor=#09555B;strokeColor=#BAC8D3;fontColor=#EEEEEE;" vertex="1" parent="1">
          <mxGeometry x="110" y="100" width="100" height="40" as="geometry" />
        </mxCell>
        <mxCell id="Pmupyu8a3VUl3kiDGNb9-3" style="edgeStyle=orthogonalEdgeStyle;rounded=0;orthogonalLoop=1;jettySize=auto;html=1;entryX=0;entryY=0.5;entryDx=0;entryDy=0;endArrow=none;startFill=0;labelBackgroundColor=none;strokeColor=#0B4D6A;fontColor=default;" edge="1" parent="1" source="Pmupyu8a3VUl3kiDGNb9-2" target="Pmupyu8a3VUl3kiDGNb9-1">
          <mxGeometry relative="1" as="geometry" />
        </mxCell>
        <mxCell id="Pmupyu8a3VUl3kiDGNb9-2" value="Id" style="ellipse;whiteSpace=wrap;html=1;align=center;fontStyle=4;labelBackgroundColor=none;fillColor=#09555B;strokeColor=#BAC8D3;fontColor=#EEEEEE;" vertex="1" parent="1">
          <mxGeometry x="-80" y="80" width="100" height="40" as="geometry" />
        </mxCell>
        <mxCell id="Pmupyu8a3VUl3kiDGNb9-5" style="edgeStyle=orthogonalEdgeStyle;shape=connector;rounded=0;orthogonalLoop=1;jettySize=auto;html=1;entryX=0;entryY=0.5;entryDx=0;entryDy=0;strokeColor=#0B4D6A;align=center;verticalAlign=middle;fontFamily=Helvetica;fontSize=11;fontColor=default;labelBackgroundColor=none;startFill=0;endArrow=none;" edge="1" parent="1" source="Pmupyu8a3VUl3kiDGNb9-4" target="Pmupyu8a3VUl3kiDGNb9-1">
          <mxGeometry relative="1" as="geometry" />
        </mxCell>
        <mxCell id="Pmupyu8a3VUl3kiDGNb9-4" value="adresse" style="ellipse;whiteSpace=wrap;html=1;align=center;fontFamily=Helvetica;fontSize=11;fontColor=#EEEEEE;labelBackgroundColor=none;fillColor=#09555B;strokeColor=#BAC8D3;" vertex="1" parent="1">
          <mxGeometry x="-80" y="130" width="100" height="40" as="geometry" />
        </mxCell>
        <mxCell id="Pmupyu8a3VUl3kiDGNb9-15" style="edgeStyle=orthogonalEdgeStyle;shape=connector;rounded=0;orthogonalLoop=1;jettySize=auto;html=1;entryX=0.5;entryY=0;entryDx=0;entryDy=0;strokeColor=#0B4D6A;align=center;verticalAlign=middle;fontFamily=Helvetica;fontSize=11;fontColor=default;labelBackgroundColor=default;startFill=0;endArrow=none;" edge="1" parent="1" source="Pmupyu8a3VUl3kiDGNb9-17" target="Pmupyu8a3VUl3kiDGNb9-14">
          <mxGeometry relative="1" as="geometry" />
        </mxCell>
        <mxCell id="Pmupyu8a3VUl3kiDGNb9-6" value="person" style="rounded=1;arcSize=10;whiteSpace=wrap;html=1;align=center;fontFamily=Helvetica;fontSize=11;fontColor=#EEEEEE;labelBackgroundColor=none;fillColor=#09555B;strokeColor=#BAC8D3;" vertex="1" parent="1">
          <mxGeometry x="530" y="100" width="100" height="40" as="geometry" />
        </mxCell>
        <mxCell id="Pmupyu8a3VUl3kiDGNb9-9" style="edgeStyle=orthogonalEdgeStyle;shape=connector;rounded=0;orthogonalLoop=1;jettySize=auto;html=1;exitX=1;exitY=0.5;exitDx=0;exitDy=0;entryX=0;entryY=0.5;entryDx=0;entryDy=0;strokeColor=#0B4D6A;align=center;verticalAlign=middle;fontFamily=Helvetica;fontSize=11;fontColor=default;labelBackgroundColor=none;startFill=0;endArrow=none;" edge="1" parent="1" source="Pmupyu8a3VUl3kiDGNb9-7" target="Pmupyu8a3VUl3kiDGNb9-6">
          <mxGeometry relative="1" as="geometry" />
        </mxCell>
        <mxCell id="Pmupyu8a3VUl3kiDGNb9-7" value="live" style="shape=rhombus;perimeter=rhombusPerimeter;whiteSpace=wrap;html=1;align=center;fontFamily=Helvetica;fontSize=11;fontColor=#EEEEEE;labelBackgroundColor=none;fillColor=#09555B;strokeColor=#BAC8D3;" vertex="1" parent="1">
          <mxGeometry x="320" y="90" width="120" height="60" as="geometry" />
        </mxCell>
        <mxCell id="Pmupyu8a3VUl3kiDGNb9-12" style="edgeStyle=orthogonalEdgeStyle;rounded=0;orthogonalLoop=1;jettySize=auto;html=1;entryX=0.5;entryY=0;entryDx=0;entryDy=0;strokeColor=#0B4D6A;endArrow=none;startFill=0;" edge="1" parent="1" source="Pmupyu8a3VUl3kiDGNb9-10" target="Pmupyu8a3VUl3kiDGNb9-6">
          <mxGeometry relative="1" as="geometry">
            <Array as="points">
              <mxPoint x="660" y="90" />
              <mxPoint x="580" y="90" />
            </Array>
          </mxGeometry>
        </mxCell>
        <mxCell id="Pmupyu8a3VUl3kiDGNb9-10" value="name" style="ellipse;whiteSpace=wrap;html=1;align=center;fontFamily=Helvetica;fontSize=11;fontColor=#EEEEEE;labelBackgroundColor=none;fillColor=#09555B;strokeColor=#BAC8D3;" vertex="1" parent="1">
          <mxGeometry x="610" y="30" width="100" height="40" as="geometry" />
        </mxCell>
        <mxCell id="Pmupyu8a3VUl3kiDGNb9-13" style="edgeStyle=orthogonalEdgeStyle;rounded=0;orthogonalLoop=1;jettySize=auto;html=1;entryX=0.5;entryY=0;entryDx=0;entryDy=0;strokeColor=#0B4D6A;endArrow=none;startFill=0;exitX=0.5;exitY=1;exitDx=0;exitDy=0;" edge="1" parent="1" source="Pmupyu8a3VUl3kiDGNb9-11" target="Pmupyu8a3VUl3kiDGNb9-6">
          <mxGeometry relative="1" as="geometry">
            <Array as="points">
              <mxPoint x="530" y="90" />
              <mxPoint x="580" y="90" />
            </Array>
          </mxGeometry>
        </mxCell>
        <mxCell id="Pmupyu8a3VUl3kiDGNb9-11" value="Id" style="ellipse;whiteSpace=wrap;html=1;align=center;fontStyle=4;fontFamily=Helvetica;fontSize=11;fontColor=#EEEEEE;labelBackgroundColor=none;fillColor=#09555B;strokeColor=#BAC8D3;" vertex="1" parent="1">
          <mxGeometry x="480" y="30" width="100" height="40" as="geometry" />
        </mxCell>
        <mxCell id="Pmupyu8a3VUl3kiDGNb9-14" value="pet" style="rounded=1;arcSize=10;whiteSpace=wrap;html=1;align=center;strokeColor=#BAC8D3;fontFamily=Helvetica;fontSize=11;fontColor=default;labelBackgroundColor=default;fillColor=#09555B;" vertex="1" parent="1">
          <mxGeometry x="530" y="310" width="100" height="40" as="geometry" />
        </mxCell>
        <mxCell id="Pmupyu8a3VUl3kiDGNb9-16" value="" style="edgeStyle=orthogonalEdgeStyle;shape=connector;rounded=0;orthogonalLoop=1;jettySize=auto;html=1;entryX=0.5;entryY=0;entryDx=0;entryDy=0;strokeColor=#0B4D6A;align=center;verticalAlign=middle;fontFamily=Helvetica;fontSize=11;fontColor=default;labelBackgroundColor=default;startFill=0;endArrow=none;" edge="1" parent="1" source="Pmupyu8a3VUl3kiDGNb9-6" target="Pmupyu8a3VUl3kiDGNb9-17">
          <mxGeometry relative="1" as="geometry">
            <mxPoint x="580" y="140" as="sourcePoint" />
            <mxPoint x="580" y="310" as="targetPoint" />
          </mxGeometry>
        </mxCell>
        <mxCell id="Pmupyu8a3VUl3kiDGNb9-17" value="owns" style="shape=rhombus;perimeter=rhombusPerimeter;whiteSpace=wrap;html=1;align=center;strokeColor=#BAC8D3;fontFamily=Helvetica;fontSize=11;fontColor=default;labelBackgroundColor=default;fillColor=#09555B;" vertex="1" parent="1">
          <mxGeometry x="520" y="180" width="120" height="60" as="geometry" />
        </mxCell>
        <mxCell id="Pmupyu8a3VUl3kiDGNb9-19" style="edgeStyle=orthogonalEdgeStyle;shape=connector;rounded=0;orthogonalLoop=1;jettySize=auto;html=1;strokeColor=#0B4D6A;align=center;verticalAlign=middle;fontFamily=Helvetica;fontSize=11;fontColor=default;labelBackgroundColor=default;startFill=0;endArrow=none;" edge="1" parent="1" source="Pmupyu8a3VUl3kiDGNb9-18">
          <mxGeometry relative="1" as="geometry">
            <mxPoint x="580" y="350" as="targetPoint" />
          </mxGeometry>
        </mxCell>
        <mxCell id="Pmupyu8a3VUl3kiDGNb9-18" value="name" style="ellipse;whiteSpace=wrap;html=1;align=center;fontFamily=Helvetica;fontSize=11;fontColor=#EEEEEE;labelBackgroundColor=none;fillColor=#09555B;strokeColor=#BAC8D3;" vertex="1" parent="1">
          <mxGeometry x="600" y="430" width="100" height="40" as="geometry" />
        </mxCell>
        <mxCell id="Pmupyu8a3VUl3kiDGNb9-21" style="edgeStyle=orthogonalEdgeStyle;shape=connector;rounded=0;orthogonalLoop=1;jettySize=auto;html=1;entryX=0.5;entryY=1;entryDx=0;entryDy=0;strokeColor=#0B4D6A;align=center;verticalAlign=middle;fontFamily=Helvetica;fontSize=11;fontColor=default;labelBackgroundColor=default;startFill=0;endArrow=none;" edge="1" parent="1" source="Pmupyu8a3VUl3kiDGNb9-20" target="Pmupyu8a3VUl3kiDGNb9-14">
          <mxGeometry relative="1" as="geometry" />
        </mxCell>
        <mxCell id="Pmupyu8a3VUl3kiDGNb9-20" value="Id" style="ellipse;whiteSpace=wrap;html=1;align=center;fontStyle=4;fontFamily=Helvetica;fontSize=11;fontColor=#EEEEEE;labelBackgroundColor=none;fillColor=#09555B;strokeColor=#BAC8D3;" vertex="1" parent="1">
          <mxGeometry x="414" y="430" width="100" height="40" as="geometry" />
        </mxCell>
        <mxCell id="Pmupyu8a3VUl3kiDGNb9-22" value="N" style="text;html=1;align=center;verticalAlign=middle;whiteSpace=wrap;rounded=0;fontFamily=Helvetica;fontSize=11;fontColor=default;labelBackgroundColor=default;" vertex="1" parent="1">
          <mxGeometry x="470" y="90" width="60" height="30" as="geometry" />
        </mxCell>
        <mxCell id="Pmupyu8a3VUl3kiDGNb9-23" value="1" style="text;html=1;align=center;verticalAlign=middle;resizable=0;points=[];autosize=1;strokeColor=none;fillColor=none;fontFamily=Helvetica;fontSize=11;fontColor=default;labelBackgroundColor=default;" vertex="1" parent="1">
          <mxGeometry x="215" y="88" width="30" height="30" as="geometry" />
        </mxCell>
        <mxCell id="Pmupyu8a3VUl3kiDGNb9-24" value="N" style="text;html=1;align=center;verticalAlign=middle;resizable=0;points=[];autosize=1;strokeColor=none;fillColor=none;fontFamily=Helvetica;fontSize=11;fontColor=default;labelBackgroundColor=default;" vertex="1" parent="1">
          <mxGeometry x="545" y="278" width="30" height="30" as="geometry" />
        </mxCell>
        <mxCell id="Pmupyu8a3VUl3kiDGNb9-25" value="1" style="text;html=1;align=center;verticalAlign=middle;resizable=0;points=[];autosize=1;strokeColor=none;fillColor=none;fontFamily=Helvetica;fontSize=11;fontColor=default;labelBackgroundColor=default;" vertex="1" parent="1">
          <mxGeometry x="545" y="148" width="30" height="30" as="geometry" />
        </mxCell>
        <mxCell id="Pmupyu8a3VUl3kiDGNb9-26" value="(0,*)" style="text;html=1;align=center;verticalAlign=middle;resizable=0;points=[];autosize=1;strokeColor=none;fillColor=none;fontFamily=Helvetica;fontSize=11;fontColor=default;labelBackgroundColor=default;" vertex="1" parent="1">
          <mxGeometry x="210" y="118" width="40" height="30" as="geometry" />
        </mxCell>
        <mxCell id="Pmupyu8a3VUl3kiDGNb9-27" value="(1,1)" style="text;html=1;align=center;verticalAlign=middle;resizable=0;points=[];autosize=1;strokeColor=none;fillColor=none;fontFamily=Helvetica;fontSize=11;fontColor=default;labelBackgroundColor=default;" vertex="1" parent="1">
          <mxGeometry x="475" y="118" width="50" height="30" as="geometry" />
        </mxCell>
        <mxCell id="Pmupyu8a3VUl3kiDGNb9-28" value="(0,*)" style="text;html=1;align=center;verticalAlign=middle;resizable=0;points=[];autosize=1;strokeColor=none;fillColor=none;fontFamily=Helvetica;fontSize=11;fontColor=default;labelBackgroundColor=default;" vertex="1" parent="1">
          <mxGeometry x="580" y="148" width="40" height="30" as="geometry" />
        </mxCell>
        <mxCell id="Pmupyu8a3VUl3kiDGNb9-29" value="(1,1)" style="text;html=1;align=center;verticalAlign=middle;resizable=0;points=[];autosize=1;strokeColor=none;fillColor=none;fontFamily=Helvetica;fontSize=11;fontColor=default;labelBackgroundColor=default;" vertex="1" parent="1">
          <mxGeometry x="575" y="278" width="50" height="30" as="geometry" />
        </mxCell>
        <mxCell id="Pmupyu8a3VUl3kiDGNb9-30" value="&lt;h1 style=&quot;margin-top: 0px;&quot;&gt;Endities&lt;/h1&gt;&lt;p&gt;haushold: &lt;u&gt;Id, &lt;/u&gt;adress,&lt;/p&gt;&lt;p&gt;person:&lt;u style=&quot;&quot;&gt;&amp;nbsp;Id,&lt;/u&gt;&amp;nbsp;name&lt;i&gt;, haushold&lt;/i&gt;&lt;/p&gt;&lt;p&gt;pet: Id, name ,&lt;i&gt; personId&lt;/i&gt;&lt;/p&gt;" style="text;html=1;whiteSpace=wrap;overflow=hidden;rounded=0;fontFamily=Helvetica;fontSize=11;fontColor=default;labelBackgroundColor=default;" vertex="1" parent="1">
          <mxGeometry x="-80" y="240" width="180" height="120" as="geometry" />
        </mxCell>
        <mxCell id="Pmupyu8a3VUl3kiDGNb9-31" value="Animals" style="rounded=1;arcSize=10;whiteSpace=wrap;html=1;align=center;strokeColor=#BAC8D3;fontFamily=Helvetica;fontSize=11;fontColor=default;labelBackgroundColor=default;fillColor=#09555B;movable=0;resizable=0;rotatable=0;deletable=0;editable=0;locked=1;connectable=0;" vertex="1" parent="1">
          <mxGeometry x="700" y="190" width="100" height="40" as="geometry" />
        </mxCell>
      </root>
    </mxGraphModel>
  </diagram>
</mxfile>
